<svg width="89" height="88" viewBox="0 0 89 88" fill="none" xmlns="http://www.w3.org/2000/svg">
<path fill-rule="evenodd" clip-rule="evenodd" d="M71 30C71 44.3594 59.3594 56 45 56C30.6406 56 19 44.3594 19 30C19 15.6406 30.6406 4 45 4C59.3594 4 71 15.6406 71 30ZM75 30C75 46.5685 61.5685 60 45 60C28.4315 60 15 46.5685 15 30C15 13.4315 28.4315 0 45 0C61.5685 0 75 13.4315 75 30ZM76.0219 76.4925C79.5201 79.8814 82.363 83.778 84.4763 88H88.9016C86.5222 82.6845 83.1159 77.7957 78.8051 73.6195C69.8033 64.8991 57.5943 60 44.8639 60C32.1335 60 19.9246 64.8991 10.9228 73.6195C6.61191 77.7957 3.20568 82.6845 0.826294 88H5.25155C7.36488 83.778 10.2078 79.8814 13.706 76.4925C21.9485 68.5075 33.1542 64 44.8639 64C56.5737 64 67.7793 68.5075 76.0219 76.4925Z" fill="white"/>
</svg>
