<svg width="89" height="88" viewBox="0 0 89 88" fill="none" xmlns="http://www.w3.org/2000/svg">
<path fill-rule="evenodd" clip-rule="evenodd" d="M70.1737 30C70.1737 44.3594 58.5331 56 44.1737 56C29.8143 56 18.1737 44.3594 18.1737 30C18.1737 15.6406 29.8143 4 44.1737 4C58.5331 4 70.1737 15.6406 70.1737 30ZM74.1737 30C74.1737 46.5685 60.7422 60 44.1737 60C27.6052 60 14.1737 46.5685 14.1737 30C14.1737 13.4315 27.6052 0 44.1737 0C60.7422 0 74.1737 13.4315 74.1737 30ZM75.1956 76.4925C78.6938 79.8814 81.5367 83.778 83.65 88H88.0753C85.6959 82.6845 82.2896 77.7957 77.9788 73.6195C68.977 64.8991 56.768 60 44.0376 60C31.3072 60 19.0983 64.8991 10.0965 73.6195C5.78562 77.7957 2.37938 82.6845 0 88H4.42525C6.53859 83.778 9.38148 79.8814 12.8797 76.4925C21.1223 68.5075 32.3279 64 44.0376 64C55.7474 64 66.953 68.5075 75.1956 76.4925Z" fill="#FF0000"/>
</svg>
